<?xml version="1.0" encoding="UTF-8"?>
<svg width="1600" height="900" viewBox="0 0 1600 900" fill="none" xmlns="http://www.w3.org/2000/svg" role="img" aria-label="Chatbot & AI Receptionist Blueprint 1">
  <defs>
    <linearGradient id="bg43" x1="0" y1="0" x2="1" y2="1">
      <stop offset="0%" stop-color="hsl(191 55% 16%)"/>
      <stop offset="100%" stop-color="hsl(274 48% 10%)"/>
    </linearGradient>
    <radialGradient id="spot43" cx="0" cy="0" r="1" gradientUnits="userSpaceOnUse" gradientTransform="translate(1240 160) rotate(124) scale(620 520)">
      <stop stop-color="hsl(257 88% 62% / 0.30)"/>
      <stop offset="1" stop-color="hsl(257 88% 62% / 0)"/>
    </radialGradient>
  </defs>
  <rect width="1600" height="900" fill="url(#bg43)"/>
  <rect width="1600" height="900" fill="url(#spot43)"/>
  <g opacity="0.28" stroke="hsl(274 48% 52% / 0.45)">
    <line x1="0" y1="0" x2="1600" y2="0"/><line x1="0" y1="40" x2="1600" y2="40"/><line x1="0" y1="80" x2="1600" y2="80"/><line x1="0" y1="120" x2="1600" y2="120"/><line x1="0" y1="160" x2="1600" y2="160"/><line x1="0" y1="200" x2="1600" y2="200"/><line x1="0" y1="240" x2="1600" y2="240"/><line x1="0" y1="280" x2="1600" y2="280"/><line x1="0" y1="320" x2="1600" y2="320"/><line x1="0" y1="360" x2="1600" y2="360"/><line x1="0" y1="400" x2="1600" y2="400"/><line x1="0" y1="440" x2="1600" y2="440"/><line x1="0" y1="480" x2="1600" y2="480"/><line x1="0" y1="520" x2="1600" y2="520"/><line x1="0" y1="560" x2="1600" y2="560"/><line x1="0" y1="600" x2="1600" y2="600"/><line x1="0" y1="640" x2="1600" y2="640"/><line x1="0" y1="680" x2="1600" y2="680"/><line x1="0" y1="720" x2="1600" y2="720"/><line x1="0" y1="760" x2="1600" y2="760"/><line x1="0" y1="800" x2="1600" y2="800"/><line x1="0" y1="840" x2="1600" y2="840"/><line x1="0" y1="880" x2="1600" y2="880"/><line x1="0" y1="920" x2="1600" y2="920"/>
    <line x1="0" y1="0" x2="0" y2="900"/><line x1="40" y1="0" x2="40" y2="900"/><line x1="80" y1="0" x2="80" y2="900"/><line x1="120" y1="0" x2="120" y2="900"/><line x1="160" y1="0" x2="160" y2="900"/><line x1="200" y1="0" x2="200" y2="900"/><line x1="240" y1="0" x2="240" y2="900"/><line x1="280" y1="0" x2="280" y2="900"/><line x1="320" y1="0" x2="320" y2="900"/><line x1="360" y1="0" x2="360" y2="900"/><line x1="400" y1="0" x2="400" y2="900"/><line x1="440" y1="0" x2="440" y2="900"/><line x1="480" y1="0" x2="480" y2="900"/><line x1="520" y1="0" x2="520" y2="900"/><line x1="560" y1="0" x2="560" y2="900"/><line x1="600" y1="0" x2="600" y2="900"/><line x1="640" y1="0" x2="640" y2="900"/><line x1="680" y1="0" x2="680" y2="900"/><line x1="720" y1="0" x2="720" y2="900"/><line x1="760" y1="0" x2="760" y2="900"/><line x1="800" y1="0" x2="800" y2="900"/><line x1="840" y1="0" x2="840" y2="900"/><line x1="880" y1="0" x2="880" y2="900"/><line x1="920" y1="0" x2="920" y2="900"/><line x1="960" y1="0" x2="960" y2="900"/><line x1="1000" y1="0" x2="1000" y2="900"/><line x1="1040" y1="0" x2="1040" y2="900"/><line x1="1080" y1="0" x2="1080" y2="900"/><line x1="1120" y1="0" x2="1120" y2="900"/><line x1="1160" y1="0" x2="1160" y2="900"/><line x1="1200" y1="0" x2="1200" y2="900"/><line x1="1240" y1="0" x2="1240" y2="900"/><line x1="1280" y1="0" x2="1280" y2="900"/><line x1="1320" y1="0" x2="1320" y2="900"/><line x1="1360" y1="0" x2="1360" y2="900"/><line x1="1400" y1="0" x2="1400" y2="900"/><line x1="1440" y1="0" x2="1440" y2="900"/><line x1="1480" y1="0" x2="1480" y2="900"/><line x1="1520" y1="0" x2="1520" y2="900"/><line x1="1560" y1="0" x2="1560" y2="900"/>
  </g>
  <rect x="118" y="108" rx="28" width="1364" height="684" fill="hsl(228 33% 8% / 0.78)" stroke="hsl(257 66% 64% / 0.42)"/>
  <rect x="160" y="154" rx="16" width="420" height="180" fill="hsl(222 35% 11% / 0.95)" stroke="hsl(191 70% 63% / 0.52)"/>
  <rect x="160" y="362" rx="16" width="420" height="180" fill="hsl(222 35% 11% / 0.95)" stroke="hsl(274 70% 63% / 0.52)"/>
  <rect x="160" y="570" rx="16" width="420" height="180" fill="hsl(222 35% 11% / 0.95)" stroke="hsl(257 70% 63% / 0.52)"/>
  <rect x="614" y="154" rx="20" width="824" height="278" fill="hsl(220 35% 10% / 0.94)" stroke="hsl(257 70% 62% / 0.52)"/>
  <rect x="614" y="458" rx="20" width="824" height="292" fill="hsl(220 35% 10% / 0.94)" stroke="hsl(191 70% 62% / 0.48)"/>
  <path d="M660 690 C740 630, 820 610, 900 590 C980 570, 1060 560, 1140 500 C1220 440, 1300 398, 1380 360" stroke="hsl(257 95% 72%)" stroke-width="8" stroke-linecap="round"/>
  <text x="190" y="232" fill="hsl(194 82% 72%)" font-family="'Space Grotesk', sans-serif" font-size="26" font-weight="700">KPI Stream</text>
  <text x="190" y="440" fill="hsl(194 82% 72%)" font-family="'Space Grotesk', sans-serif" font-size="26" font-weight="700">Lead Pipeline</text>
  <text x="190" y="648" fill="hsl(194 82% 72%)" font-family="'Space Grotesk', sans-serif" font-size="26" font-weight="700">Automation Queue</text>
  <text x="650" y="222" fill="white" font-family="'Space Grotesk', sans-serif" font-size="46" font-weight="700">Chatbot & AI Receptionist Blueprint 1</text>
  <text x="650" y="276" fill="hsl(210 22% 78%)" font-family="Manrope, sans-serif" font-size="28">Visual preview for Business Growth Library content.</text>
</svg>